<?xml version="1.0" encoding="UTF-8" standalone="no"?>
<svg viewBox="0 0 50 50"
 xmlns="http://www.w3.org/2000/svg" xmlns:xlink="http://www.w3.org/1999/xlink" version="1.2" baseProfile="tiny">
<title>Qt SVG Document</title>
<desc>Generated with Qt</desc>
<defs>
<radialGradient gradientUnits="userSpaceOnUse" cx="56.4563" cy="344.537" r="8" fx="56.4563" fy="344.537" id="gradient1">
    <stop offset="0" stop-color="#74b5f0" stop-opacity="1" />
    <stop offset="1" stop-color="#1f63da" stop-opacity="1" />
</radialGradient>
</defs>
<g fill="none" stroke="black" stroke-width="1" fill-rule="evenodd" stroke-linecap="square" stroke-linejoin="bevel" >

<g fill="url(#gradient1)" stroke="none" transform="matrix(-3.125,0,0,-3.125,283.622,-3447.71)"
font-family="Roboto" font-size="11" font-weight="400" font-style="normal" 
>
<rect x="74.7591" y="-1119.27" width="16" height="16"/>
</g>

<g fill="#ffffff" fill-opacity="1" stroke="none" transform="matrix(3.125,0,0,3.125,283.622,-3447.71)"
font-family="Roboto" font-size="11" font-weight="400" font-style="normal" 
>
<rect x="-87.7591" y="1117.27" width="8" height="1"/>
</g>

<g fill="#ffffff" fill-opacity="1" stroke="none" transform="matrix(3.125,0,0,3.125,283.622,-3447.71)"
font-family="Roboto" font-size="11" font-weight="400" font-style="normal" 
>
<rect x="-87.7591" y="1110.27" width="8" height="1"/>
</g>

<g fill="#ffffff" fill-opacity="1" stroke="none" transform="matrix(3.125,0,0,3.125,283.622,-3447.71)"
font-family="Roboto" font-size="11" font-weight="400" font-style="normal" 
>
<rect x="-87.7591" y="1111.27" width="1" height="6.00003"/>
</g>

<g fill="#ffffff" fill-opacity="1" stroke="none" transform="matrix(3.125,0,0,3.125,283.622,-3447.71)"
font-family="Roboto" font-size="11" font-weight="400" font-style="normal" 
>
<rect x="-80.7591" y="1111.27" width="1" height="6.00002"/>
</g>

<g fill="#ffffff" fill-opacity="1" stroke="none" transform="matrix(3.125,0,0,3.125,283.622,-3447.71)"
font-family="Roboto" font-size="11" font-weight="400" font-style="normal" 
>
<rect x="-82.7591" y="1106.27" width="7" height="1"/>
</g>

<g fill="#ffffff" fill-opacity="1" stroke="none" transform="matrix(0,3.125,-3.125,0,283.622,-3447.71)"
font-family="Roboto" font-size="11" font-weight="400" font-style="normal" 
>
<rect x="1107.27" y="75.7591" width="5.99999" height="1"/>
</g>

<g fill="#ffffff" fill-opacity="1" stroke="none" transform="matrix(0,3.125,-3.125,0,283.622,-3447.71)"
font-family="Roboto" font-size="11" font-weight="400" font-style="normal" 
>
<rect x="1107.27" y="81.7591" width="2.99999" height="1"/>
</g>

<g fill="#ffffff" fill-opacity="1" stroke="none" transform="matrix(3.125,0,0,3.125,283.622,-3447.71)"
font-family="Roboto" font-size="11" font-weight="400" font-style="normal" 
>
<rect x="-79.7591" y="1112.27" width="3" height="1"/>
</g>

<g fill="#ffffff" fill-opacity="1" stroke="none" transform="matrix(3.125,0,0,3.125,283.622,-3447.71)"
font-family="Roboto" font-size="11" font-weight="400" font-style="normal" 
>
<rect x="-86.7591" y="1111.27" width="6" height="1"/>
</g>

<g fill="none" stroke="#000000" stroke-opacity="1" stroke-width="1" stroke-linecap="square" stroke-linejoin="bevel" transform="matrix(1,0,0,1,0,0)"
font-family="Roboto" font-size="11" font-weight="400" font-style="normal" 
>
</g>
</g>
</svg>
